<svg xmlns="http://www.w3.org/2000/svg" width="500" height="500" viewBox="0 0 500 500">
  <defs>
    <style>
      .cls-1 {
        fill-rule: evenodd;
      }
    </style>
  </defs>
  <path id="svg-user.svg" class="cls-1" d="M1324.69,1374.18a188.524,188.524,0,0,1-34.55,27.12c59.84,39.04,91.21,105.89,103.58,153.03H989.831c11.919-47.71,42.869-114.64,103.6-153.3a187.383,187.383,0,0,1-34.55-27.34C970.178,1437.74,942,1550.94,942,1596h500C1442,1551.38,1411.99,1438.57,1324.69,1374.18ZM1192,1096a145.845,145.845,0,1,0,145.83,145.85A145.827,145.827,0,0,0,1192,1096Zm0,41.67a104.175,104.175,0,1,1-104.17,104.18A104.3,104.3,0,0,1,1192,1137.67Z" transform="translate(-942 -1096)"/>
</svg>
